<svg width="13" height="15" viewBox="0 0 13 15" fill="none" xmlns="http://www.w3.org/2000/svg">
<circle cx="6.5" cy="7.5" r="6.5" fill="#DBDBDB"/>
<path d="M5.74316 8.99805C5.74967 8.61068 5.79362 8.30469 5.875 8.08008C5.95638 7.85547 6.1224 7.60645 6.37305 7.33301L7.0127 6.67383C7.28613 6.36458 7.42285 6.03255 7.42285 5.67773C7.42285 5.33594 7.33333 5.06901 7.1543 4.87695C6.97526 4.68164 6.71484 4.58398 6.37305 4.58398C6.04102 4.58398 5.77409 4.67188 5.57227 4.84766C5.37044 5.02344 5.26953 5.25944 5.26953 5.55566H4.36621C4.37272 5.02832 4.5599 4.60352 4.92773 4.28125C5.29883 3.95573 5.7806 3.79297 6.37305 3.79297C6.98828 3.79297 7.4668 3.95898 7.80859 4.29102C8.15365 4.61979 8.32617 5.07227 8.32617 5.64844C8.32617 6.2181 8.0625 6.77962 7.53516 7.33301L7.00293 7.86035C6.7653 8.12402 6.64648 8.50326 6.64648 8.99805H5.74316ZM5.7041 10.5459C5.7041 10.3994 5.74805 10.2773 5.83594 10.1797C5.92708 10.0788 6.06055 10.0283 6.23633 10.0283C6.41211 10.0283 6.54557 10.0788 6.63672 10.1797C6.72786 10.2773 6.77344 10.3994 6.77344 10.5459C6.77344 10.6924 6.72786 10.8145 6.63672 10.9121C6.54557 11.0065 6.41211 11.0537 6.23633 11.0537C6.06055 11.0537 5.92708 11.0065 5.83594 10.9121C5.74805 10.8145 5.7041 10.6924 5.7041 10.5459Z" fill="black"/>
</svg>
